<?xml version="1.0" encoding="utf-8"?>
<!-- Generator: Adobe Illustrator 23.1.1, SVG Export Plug-In . SVG Version: 6.00 Build 0)  -->
<svg version="1.1" id="Layer_1" xmlns="http://www.w3.org/2000/svg" xmlns:xlink="http://www.w3.org/1999/xlink" x="0px" y="0px"
	 viewBox="0 0 302.5 307" enable-background="new 0 0 302.5 307" xml:space="preserve">
<path fill="#FFFFFF" d="M296.1,269.3l-68.9-68.9c-1.1-1.1-2.2-2-3.5-2.8C239,177,248,151.6,248,124C248,55.5,192.5,0,124,0
	S0,55.5,0,124s55.5,124,124,124c25.4,0,49-7.7,68.7-20.8c0.9,1.6,2,3.1,3.4,4.4l68.9,68.9c8.6,8.6,22.6,8.6,31.2,0v0
	C304.7,291.9,304.7,277.9,296.1,269.3z M124,209c-46.9,0-85-38.1-85-85s38.1-85,85-85s85,38.1,85,85S170.9,209,124,209z"/>
</svg>
